<?xml version="1.0" encoding="UTF-8" standalone="no"?>
<svg
   width="205mm"
   height="205mm"
   viewBox="0 0 205 205"
   version="1.1"
   id="svg8"
   inkscape:version="1.3.2 (091e20ef0f, 2023-11-25, custom)"
   sodipodi:docname="rat.svg"
   inkscape:export-filename="rat.png"
   inkscape:export-xdpi="49.561115"
   inkscape:export-ydpi="49.561115"
   xmlns:inkscape="http://www.inkscape.org/namespaces/inkscape"
   xmlns:sodipodi="http://sodipodi.sourceforge.net/DTD/sodipodi-0.dtd"
   xmlns="http://www.w3.org/2000/svg"
   xmlns:svg="http://www.w3.org/2000/svg"
   xmlns:rdf="http://www.w3.org/1999/02/22-rdf-syntax-ns#"
   xmlns:cc="http://creativecommons.org/ns#"
   xmlns:dc="http://purl.org/dc/elements/1.1/">
  <defs
     id="defs2">
    <inkscape:path-effect
       effect="powerstroke"
       id="path-effect891"
       is_visible="true"
       lpeversion="1"
       offset_points="0,1.76062"
       sort_points="true"
       interpolator_type="CubicBezierJohan"
       interpolator_beta="0.2"
       start_linecap_type="zerowidth"
       linejoin_type="extrp_arc"
       miter_limit="4"
       scale_width="1"
       end_linecap_type="zerowidth"
       not_jump="false"
       message="&lt;b&gt;Ctrl + click&lt;/b&gt; on existing node and move it" />
    <inkscape:path-effect
       effect="powerstroke"
       id="path-effect887"
       is_visible="true"
       lpeversion="1"
       offset_points="0,1.76062"
       sort_points="true"
       interpolator_type="CubicBezierJohan"
       interpolator_beta="0.2"
       start_linecap_type="zerowidth"
       linejoin_type="extrp_arc"
       miter_limit="4"
       scale_width="1"
       end_linecap_type="zerowidth"
       not_jump="false"
       message="&lt;b&gt;Ctrl + click&lt;/b&gt; on existing node and move it" />
    <inkscape:path-effect
       effect="powerstroke"
       id="path-effect883"
       is_visible="true"
       lpeversion="1"
       offset_points="0.11049756,1.7606197"
       sort_points="true"
       interpolator_type="CubicBezierJohan"
       interpolator_beta="0.2"
       start_linecap_type="zerowidth"
       linejoin_type="extrp_arc"
       miter_limit="4"
       scale_width="1"
       end_linecap_type="zerowidth"
       not_jump="false"
       message="&lt;b&gt;Ctrl + click&lt;/b&gt; on existing node and move it" />
    <inkscape:path-effect
       effect="bspline"
       id="path-effect869"
       is_visible="true"
       lpeversion="1"
       weight="33.333333"
       steps="2"
       helper_size="0"
       apply_no_weight="true"
       apply_with_weight="true"
       only_selected="false"
       uniform="false" />
    <inkscape:perspective
       sodipodi:type="inkscape:persp3d"
       inkscape:vp_x="17.008928 : 142.30059 : 1"
       inkscape:vp_y="0 : 999.99993 : 0"
       inkscape:vp_z="180.51786 : 131.71726 : 1"
       inkscape:persp3d-origin="105 : 6.9999957 : 1"
       id="perspective833" />
  </defs>
  <sodipodi:namedview
     id="base"
     pagecolor="#ffffff"
     bordercolor="#666666"
     borderopacity="1.0"
     inkscape:pageopacity="0.0"
     inkscape:pageshadow="2"
     inkscape:zoom="1"
     inkscape:cx="259.5"
     inkscape:cy="401.5"
     inkscape:document-units="mm"
     inkscape:current-layer="layer1"
     inkscape:document-rotation="0"
     showgrid="false"
     inkscape:window-width="1499"
     inkscape:window-height="1243"
     inkscape:window-x="931"
     inkscape:window-y="144"
     inkscape:window-maximized="0"
     inkscape:showpageshadow="false"
     inkscape:pagecheckerboard="1"
     inkscape:deskcolor="#505050"
     inkscape:clip-to-page="false"
     labelstyle="default"
     inkscape:export-bgcolor="#ffffffff" />
  <metadata
     id="metadata5">
    <rdf:RDF>
      <cc:Work
         rdf:about="">
        <dc:format>image/svg+xml</dc:format>
        <dc:type
           rdf:resource="http://purl.org/dc/dcmitype/StillImage" />
        <cc:license
           rdf:resource="http://creativecommons.org/licenses/by-nc-nd/4.0/" />
      </cc:Work>
      <cc:License
         rdf:about="http://creativecommons.org/licenses/by-nc-nd/4.0/">
        <cc:permits
           rdf:resource="http://creativecommons.org/ns#Reproduction" />
        <cc:permits
           rdf:resource="http://creativecommons.org/ns#Distribution" />
        <cc:requires
           rdf:resource="http://creativecommons.org/ns#Notice" />
        <cc:requires
           rdf:resource="http://creativecommons.org/ns#Attribution" />
        <cc:prohibits
           rdf:resource="http://creativecommons.org/ns#CommercialUse" />
      </cc:License>
    </rdf:RDF>
  </metadata>
  <g
     inkscape:label="Layer 1"
     inkscape:groupmode="layer"
     id="layer1"
     transform="translate(-2.6458355,-2.1166678)">
    <path
       sodipodi:type="star"
       style="fill:#ffffff;fill-opacity:1;fill-rule:evenodd;stroke:#000000;stroke-width:8;stroke-miterlimit:4;stroke-dasharray:none;stroke-dashoffset:32.006"
       id="path865"
       sodipodi:sides="7"
       sodipodi:cx="101.30512"
       sodipodi:cy="144.3679"
       sodipodi:r1="77.995094"
       sodipodi:r2="70.271149"
       sodipodi:arg1="1.5707963"
       sodipodi:arg2="2.0195953"
       inkscape:flatsided="true"
       inkscape:rounded="0"
       inkscape:randomized="0"
       d="m 101.30512,222.363 -60.979017,-29.36595 -15.060576,-65.98468 42.19879,-52.915616 67.681603,-2e-6 42.1988,52.915608 -15.06058,65.98469 z"
       inkscape:transform-center-y="5.0516512"
       transform="matrix(1.2753805,0,0,1.3080571,-24.056739,-89.574159)"
       inkscape:transform-center-x="9.9878754e-06" />
    <path
       id="path881"
       style="fill:#000000;fill-opacity:1;fill-rule:nonzero;stroke:#000000;stroke-width:4.52065;stroke-linecap:square;stroke-linejoin:miter;stroke-miterlimit:4;stroke-dasharray:none;stroke-opacity:1"
       d="m 138.45292,20.550592 -8.18104,10.576028 0.33673,8.648197 L 113.11096,36.737943 85.015884,37.294249 56.727606,46.3318 34.572738,69.320907 28.948221,96.939175 v 19.403375 l 8.181058,14.85823 9.885406,19.75213 33.405023,22.72432 24.713172,6.64265 26.07686,-4.37007 31.95655,-18.79127 c 5.62098,-11.43804 10.01592,-20.22638 16.36159,-32.42559 l -16.99958,30.89802 -20.99681,11.15546 -25.31259,6.90902 -22.505073,-4.91282 -17.043576,-12.58564 -11.232343,-15.83693 6.883356,-2.98081 6.179238,-0.44792 5.607176,0.36196 8.475941,0.78153 24.626971,-4.95798 v 0 l -20.113067,-0.72983 -13.603904,-1.56107 -7.049363,-10.52097 8.614653,-19.72592 12.965952,-4.737609 9.306469,1.842237 18.41028,-2.485711 v 0 l -13.47553,-1.363627 -4.35638,-8.646343 4.2112,-12.371424 18.26431,-5.619517 23.84888,8.356181 24.20786,2.230943 -11.96376,-25.2246 -16.52909,-13.891981 -2.97441,-11.387177 z"
       sodipodi:nodetypes="cccccccccccccccccccccccccccccccccccccccccccccc" />
    <path
       style="fill:none;stroke:#000000;stroke-width:4.52067;stroke-linecap:butt;stroke-linejoin:miter;stroke-miterlimit:4;stroke-dasharray:none;stroke-opacity:1"
       d="m 130.60861,39.774817 1.16169,5.996991"
       id="path898" />
    <path
       sodipodi:type="star"
       style="fill:#ffffff;fill-opacity:1;fill-rule:evenodd;stroke:#000000;stroke-width:2.12177;stroke-linecap:square;stroke-linejoin:miter;stroke-miterlimit:4;stroke-dasharray:none;stroke-dashoffset:32.006;stroke-opacity:1"
       id="path909"
       sodipodi:sides="4"
       sodipodi:cx="130.96207"
       sodipodi:cy="143.65735"
       sodipodi:r1="12.207666"
       sodipodi:r2="8.632123"
       sodipodi:arg1="0.73118776"
       sodipodi:arg2="1.5165859"
       inkscape:flatsided="true"
       inkscape:rounded="1.64105e-15"
       inkscape:randomized="0"
       d="m 140.04923,151.80907 -17.23888,0.93544 -0.93545,-17.23888 17.23889,-0.93545 z"
       inkscape:transform-center-x="2.179151"
       inkscape:transform-center-y="-0.33901885"
       transform="matrix(1.5989074,-0.23931605,0.23333766,1.6398729,-88.299684,-101.51434)" />
    <ellipse
       style="fill:#000000;fill-opacity:1;fill-rule:evenodd;stroke:#000000;stroke-width:0;stroke-linecap:square;stroke-linejoin:miter;stroke-miterlimit:4;stroke-dasharray:none;stroke-dashoffset:32.006;stroke-opacity:1"
       id="path911"
       cx="127.05604"
       cy="124.60073"
       rx="2.755883"
       ry="2.7721622"
       transform="matrix(0.97942771,-0.20179532,0.19221615,0.98135261,0,0)" />
    <ellipse
       style="fill:#000000;fill-opacity:1;fill-rule:evenodd;stroke:#000000;stroke-width:0;stroke-linecap:square;stroke-linejoin:miter;stroke-miterlimit:4;stroke-dasharray:none;stroke-dashoffset:32.006;stroke-opacity:1"
       id="path911-1"
       cx="127.12685"
       cy="131.52322"
       rx="2.755883"
       ry="2.7721622"
       transform="matrix(0.97942771,-0.20179532,0.19221615,0.98135261,0,0)" />
    <ellipse
       style="fill:#000000;fill-opacity:1;fill-rule:evenodd;stroke:#000000;stroke-width:0;stroke-linecap:square;stroke-linejoin:miter;stroke-miterlimit:4;stroke-dasharray:none;stroke-dashoffset:32.006;stroke-opacity:1"
       id="path911-4"
       cx="127.37929"
       cy="138.50375"
       rx="2.755883"
       ry="2.7721622"
       transform="matrix(0.97942771,-0.20179532,0.19221615,0.98135261,0,0)" />
    <ellipse
       style="fill:#000000;fill-opacity:1;fill-rule:evenodd;stroke:#000000;stroke-width:0;stroke-linecap:square;stroke-linejoin:miter;stroke-miterlimit:4;stroke-dasharray:none;stroke-dashoffset:32.006;stroke-opacity:1"
       id="path911-8"
       cx="136.94911"
       cy="124.52451"
       rx="2.755883"
       ry="2.7721622"
       transform="matrix(0.97942771,-0.20179532,0.19221615,0.98135261,0,0)" />
    <ellipse
       style="fill:#000000;fill-opacity:1;fill-rule:evenodd;stroke:#000000;stroke-width:0;stroke-linecap:square;stroke-linejoin:miter;stroke-miterlimit:4;stroke-dasharray:none;stroke-dashoffset:32.006;stroke-opacity:1"
       id="path911-1-2"
       cx="137.01987"
       cy="131.44693"
       rx="2.755883"
       ry="2.7721622"
       transform="matrix(0.97942771,-0.20179532,0.19221615,0.98135261,0,0)" />
    <ellipse
       style="fill:#000000;fill-opacity:1;fill-rule:evenodd;stroke:#000000;stroke-width:0;stroke-linecap:square;stroke-linejoin:miter;stroke-miterlimit:4;stroke-dasharray:none;stroke-dashoffset:32.006;stroke-opacity:1"
       id="path911-4-9"
       cx="136.91281"
       cy="138.44385"
       rx="2.755883"
       ry="2.7721622"
       transform="matrix(0.97942771,-0.20179532,0.19221615,0.98135261,0,0)" />
    <path
       d="m 58.000758,62.829004 h 3.460608 l 5.178285,-16.243758 h -0.707279 l 5.127763,16.243758 h 3.612169 L 68.584665,44.849469 h -4.167887 z m 4.117366,-4.481931 h 8.386293 L 70.04974,55.367757 h -7.476937 z m 14.600243,4.481931 h 3.258531 V 47.776973 h 2.82911 c 2.071313,0 3.28379,1.062191 3.28379,2.823875 0,1.709869 -1.010396,2.720247 -2.854371,2.720247 H 78.94124 v 2.823876 h 3.864768 c 3.991067,0 6.64336,-2.487083 6.64336,-6.036358 0,-3.31611 -2.349174,-5.259144 -6.213941,-5.259144 h -6.51706 z m 9.95241,0 h 3.890027 l -4.799385,-8.083018 h -3.612168 z m 6.365499,0 h 3.258528 V 47.776973 h 2.829115 c 2.071301,0 3.283781,1.062191 3.283781,2.823875 0,1.709869 -1.0104,2.720247 -2.854362,2.720247 h -4.294191 v 2.823876 h 3.864772 c 3.991061,0 6.643351,-2.487083 6.643351,-6.036358 0,-3.31611 -2.34916,-5.259144 -6.213932,-5.259144 h -6.517062 z m 9.952394,0 h 3.89004 l -4.79939,-8.083018 h -3.612163 z m 4.2942,0 h 3.4606 l 5.17829,-16.243758 h -0.70728 l 5.12776,16.243758 h 3.61217 l -6.08764,-17.979535 h -4.16789 z m 4.11737,-4.481931 h 8.38628 l -0.45467,-2.979316 h -7.47694 z m 18.36396,4.481931 h 3.23327 V 47.776973 h 5.65821 v -2.927504 h -14.49917 v 2.927504 h 5.60769 z m 9.09356,0 h 3.46061 l 5.17829,-16.243758 h -0.70728 l 5.12777,16.243758 h 3.61217 l -6.08765,-17.979535 h -4.16789 z m 4.11737,-4.481931 h 8.38629 l -0.45467,-2.979316 h -7.47694 z"
       id="text983"
       style="font-weight:bold;font-size:25.716px;line-height:1.25;font-family:'Noto Sans Gurmukhi UI';-inkscape-font-specification:'Noto Sans Gurmukhi UI, Bold';text-align:end;text-anchor:end;fill:#ffffff;stroke:#ffffff;stroke-width:0.639533"
       aria-label="ARRATA" />
    <text
       xml:space="preserve"
       style="font-size:13.6695px;line-height:1.25;font-family:Bahnschrift;-inkscape-font-specification:Bahnschrift;text-align:end;text-anchor:end;stroke-width:0.341739"
       x="108.90749"
       y="61.628853"
       id="text987"
       transform="scale(0.98743039,1.0127296)"><tspan
         sodipodi:role="line"
         id="tspan985"
         x="108.90749"
         y="61.628853"
         style="stroke-width:0.341739" /></text>
    <path
       style="font-weight:600;font-size:5.93873px;line-height:1.25;font-family:'Noto Sans Gurmukhi UI';-inkscape-font-specification:'Noto Sans Gurmukhi UI, Semi-Bold';text-align:center;text-anchor:middle;fill:#ffffff;stroke:#ffffff;stroke-width:0.425014"
       d="m 57.816266,69.891054 h 0.665007 v -3.559803 h 0.705843 c 0.507506,0 0.80501,0.269229 0.80501,0.711961 0,0.430766 -0.25667,0.682046 -0.723344,0.682046 h -1.003345 v 0.574355 h 0.921679 c 0.89251,0 1.493352,-0.562389 1.493352,-1.364092 0,-0.75384 -0.536675,-1.196573 -1.411686,-1.196573 h -1.452516 z m 2.315861,0 h 0.793344 L 59.817123,67.994488 H 59.07628 Z m 3.103366,0.05385 c 1.195848,0 2.000859,-0.867515 2.000859,-2.171779 0,-1.250419 -0.781677,-2.088021 -1.942525,-2.088021 -1.184181,0 -1.971691,0.861533 -1.971691,2.159816 0,1.262383 0.764178,2.099984 1.913357,2.099984 z m 0.05834,-0.598286 c -0.775843,0 -1.28335,-0.622218 -1.28335,-1.573493 0,-0.891448 0.484173,-1.489733 1.225015,-1.489733 0.78751,0 1.312516,0.622218 1.312516,1.561528 0,0.903411 -0.501673,1.501698 -1.254181,1.501698 z m 2.712534,0.544439 h 2.432527 V 69.292764 H 66.67137 v -3.553821 h -0.665007 z m 3.056705,0 h 2.665866 v -0.592302 h -2.000857 v -1.238452 h 1.843355 v -0.598291 h -1.843358 v -1.124778 h 2.000857 v -0.598287 h -2.665866 z m 3.476713,0 h 0.665009 v -3.553824 h 0.618341 c 0.525006,0 0.880843,0.33504 0.880843,0.843585 0,0.484612 -0.291669,0.747858 -0.810842,0.747858 h -0.933345 v 0.592302 h 0.81084 c 0.968345,0 1.615854,-0.568371 1.615854,-1.435887 0,-0.819653 -0.583342,-1.346144 -1.499187,-1.346144 h -1.347516 z m 3.511707,0 h 2.432529 V 69.292773 H 76.716496 V 65.738952 H 76.05149 Z m 2.578366,0 h 0.700005 l 1.236682,-3.769203 H 80.43821 l 1.207515,3.769203 h 0.735008 l -1.40585,-4.152105 H 80.11737 Z m 0.886674,-1.10085 h 1.965857 l -0.07,-0.60427 h -1.825854 z m 4.351724,1.100846 h 0.665006 V 68.20987 l 1.423352,-2.470923 h -0.73501 L 84.18326,67.68936 h 0.08166 l -1.079182,-1.950417 h -0.781676 l 1.464185,2.46494 z m 2.590029,0 h 0.670842 v -4.152105 h -0.670845 z m 1.656689,0 h 0.630008 v -3.362369 l -0.07582,0.01796 2.170027,3.34442 h 0.740842 v -4.152118 h -0.630014 l -0.0058,3.392283 0.09333,-0.01796 -2.164192,-3.374334 h -0.758344 z m 6.300081,0.05983 c 0.589174,0 1.108348,-0.179486 1.534185,-0.532475 v -1.812811 h -1.697523 v 0.580338 h 1.050014 v 1.268367 l 0.122502,-0.370937 c -0.250837,0.173504 -0.571674,0.275211 -0.92168,0.275211 -0.886677,0 -1.45835,-0.622218 -1.45835,-1.591441 0,-0.945293 0.53084,-1.48375 1.45835,-1.48375 0.361672,0 0.775843,0.07777 1.102514,0.203416 l 0.186669,-0.532474 c -0.350004,-0.173503 -0.787509,-0.26923 -1.236681,-0.26923 -1.330017,0 -2.199194,0.867516 -2.199194,2.171781 0,1.256401 0.816676,2.094002 2.059192,2.094002 z m 4.666716,0 c 0.956669,0 1.551679,-0.490595 1.551679,-1.250419 0,-1.489733 -2.17586,-0.951276 -2.17586,-1.866653 0,-0.358971 0.303343,-0.556408 0.845848,-0.556408 0.338333,0 0.705842,0.07178 0.997502,0.185471 l 0.19251,-0.538459 C 100.14927,65.76886 99.735105,65.6851 99.344275,65.6851 c -0.945007,0 -1.575019,0.490596 -1.575019,1.256402 0,1.417939 2.170018,0.933328 2.170018,1.848705 0,0.341023 -0.291669,0.556407 -0.828336,0.556407 -0.367505,0 -0.816675,-0.09573 -1.213345,-0.263246 l -0.192504,0.54444 c 0.437505,0.203417 0.921682,0.323075 1.376686,0.323075 z m 3.214189,-0.05983 h 0.66502 V 68.20987 l 1.42335,-2.470923 h -0.73501 l -1.03834,1.950413 h 0.0816 l -1.07917,-1.950413 h -0.78168 l 1.46418,2.46494 z m 3.6634,0.05983 c 0.95666,0 1.55167,-0.490595 1.55167,-1.250419 0,-1.489733 -2.17586,-0.951276 -2.17586,-1.866653 0,-0.358971 0.30333,-0.556408 0.84585,-0.556408 0.33832,0 0.70584,0.07178 0.99751,0.185471 l 0.19251,-0.538459 c -0.34418,-0.155555 -0.75836,-0.239315 -1.1492,-0.239315 -0.94501,0 -1.57502,0.490596 -1.57502,1.256402 0,1.417939 2.17004,0.933328 2.17004,1.848705 0,0.341023 -0.29168,0.556407 -0.82834,0.556407 -0.36751,0 -0.81668,-0.09573 -1.21336,-0.263246 l -0.1925,0.54444 c 0.43752,0.203417 0.92167,0.323075 1.3767,0.323075 z m 3.10918,-0.05983 h 0.65335 v -3.55382 h 1.32417 v -0.59829 h -3.29586 v 0.598286 h 1.31834 z m 2.52004,0 h 2.66587 v -0.592297 h -2.00087 v -1.238452 h 1.84336 v -0.598288 h -1.84336 v -1.124778 h 2.00087 v -0.59829 h -2.66587 z m 3.47671,0 h 0.64168 v -3.212799 l -0.11084,0.05982 1.26002,2.512804 h 0.51334 l 1.23085,-2.512804 -0.07,-0.04787 v 3.200831 h 0.64168 v -4.152108 h -0.64751 l -1.55169,3.117072 h 0.3325 l -1.58085,-3.117072 h -0.65918 z"
       id="text983-4"
       aria-label="ROLEPLAYING SYSTEM" />
    <path
       sodipodi:type="star"
       style="fill:#ffffff;fill-opacity:1;fill-rule:evenodd;stroke:#000000;stroke-width:2.92869;stroke-linecap:square;stroke-linejoin:miter;stroke-miterlimit:4;stroke-dasharray:none;stroke-dashoffset:32.006;stroke-opacity:1"
       id="path909-2"
       sodipodi:sides="4"
       sodipodi:cx="130.96207"
       sodipodi:cy="143.65735"
       sodipodi:r1="12.207666"
       sodipodi:r2="8.632123"
       sodipodi:arg1="0.73118776"
       sodipodi:arg2="1.5165859"
       inkscape:flatsided="true"
       inkscape:rounded="1.64105e-15"
       inkscape:randomized="0"
       inkscape:transform-center-x="0.73038808"
       inkscape:transform-center-y="-1.0461562"
       transform="matrix(0.72997991,0.57383535,-0.55950034,0.74868285,111.0442,-65.64549)"
       d="m 140.04923,151.80907 -17.23888,0.93544 -0.93545,-17.23888 17.23889,-0.93545 z" />
    <ellipse
       style="fill:#000000;fill-opacity:1;fill-rule:evenodd;stroke:#000000;stroke-width:0;stroke-linecap:square;stroke-linejoin:miter;stroke-miterlimit:4;stroke-dasharray:none;stroke-dashoffset:32.006;stroke-opacity:1"
       id="path911-88"
       cx="169.91051"
       cy="23.046326"
       rx="1.9775611"
       ry="1.961198"
       transform="matrix(0.81823335,0.57488623,-0.55542715,0.8315652,0,0)" />
    <path
       sodipodi:type="star"
       style="fill:#ffffff;fill-opacity:1;fill-rule:evenodd;stroke:#000000;stroke-width:2.27612;stroke-linecap:square;stroke-linejoin:miter;stroke-miterlimit:4;stroke-dasharray:none;stroke-dashoffset:32.006;stroke-opacity:1"
       id="path909-4"
       sodipodi:sides="4"
       sodipodi:cx="130.96207"
       sodipodi:cy="143.65735"
       sodipodi:r1="12.207666"
       sodipodi:r2="8.632123"
       sodipodi:arg1="0.73118776"
       sodipodi:arg2="1.5165859"
       inkscape:flatsided="true"
       inkscape:rounded="1.64105e-15"
       inkscape:randomized="0"
       inkscape:transform-center-x="1.5778979"
       inkscape:transform-center-y="-0.65459255"
       transform="matrix(1.2428937,0.11370791,-0.11086734,1.2747385,-1.6161574,-60.121856)"
       d="m 140.04923,151.80907 -17.23888,0.93544 -0.93545,-17.23888 17.23889,-0.93545 z" />
    <ellipse
       style="fill:#000000;fill-opacity:1;fill-rule:evenodd;stroke:#000000;stroke-width:0;stroke-linecap:square;stroke-linejoin:miter;stroke-miterlimit:4;stroke-dasharray:none;stroke-dashoffset:32.006;stroke-opacity:1"
       id="path911-4-22"
       cx="145.59438"
       cy="137.74313"
       rx="2.1261501"
       ry="2.1427755"
       transform="matrix(0.99933241,0.03653396,-0.03473369,0.9993966,0,0)" />
    <ellipse
       style="fill:#000000;fill-opacity:1;fill-rule:evenodd;stroke:#000000;stroke-width:0;stroke-linecap:square;stroke-linejoin:miter;stroke-miterlimit:4;stroke-dasharray:none;stroke-dashoffset:32.006;stroke-opacity:1"
       id="path911-8-5"
       cx="155.14291"
       cy="127.02955"
       rx="2.1261501"
       ry="2.1427755"
       transform="matrix(0.99933241,0.03653396,-0.03473369,0.9993966,0,0)" />
    <ellipse
       style="fill:#000000;fill-opacity:1;fill-rule:evenodd;stroke:#000000;stroke-width:0;stroke-linecap:square;stroke-linejoin:miter;stroke-miterlimit:4;stroke-dasharray:none;stroke-dashoffset:32.006;stroke-opacity:1"
       id="path911-1-2-3"
       cx="151.25241"
       cy="133.45552"
       rx="2.1307635"
       ry="2.1969454"
       transform="matrix(0.99957999,0.02898001,-0.04175258,0.99912798,0,0)" />
  </g>
</svg>
