<?xml version="1.0" encoding="UTF-8" standalone="no"?>
<svg
   width="205.70999mm"
   height="206.42638mm"
   viewBox="0 0 205.70999 206.42638"
   version="1.1"
   id="svg8"
   inkscape:version="1.3.2 (091e20ef0f, 2023-11-25, custom)"
   sodipodi:docname="rat.svg"
   inkscape:export-filename="G:\My Drive\RPG\Arrata\rat.png"
   inkscape:export-xdpi="600"
   inkscape:export-ydpi="600"
   xmlns:inkscape="http://www.inkscape.org/namespaces/inkscape"
   xmlns:sodipodi="http://sodipodi.sourceforge.net/DTD/sodipodi-0.dtd"
   xmlns="http://www.w3.org/2000/svg"
   xmlns:svg="http://www.w3.org/2000/svg"
   xmlns:rdf="http://www.w3.org/1999/02/22-rdf-syntax-ns#"
   xmlns:cc="http://creativecommons.org/ns#"
   xmlns:dc="http://purl.org/dc/elements/1.1/">
  <defs
     id="defs2">
    <inkscape:path-effect
       effect="powerstroke"
       id="path-effect891"
       is_visible="true"
       lpeversion="1"
       offset_points="0,1.76062"
       sort_points="true"
       interpolator_type="CubicBezierJohan"
       interpolator_beta="0.2"
       start_linecap_type="zerowidth"
       linejoin_type="extrp_arc"
       miter_limit="4"
       scale_width="1"
       end_linecap_type="zerowidth"
       not_jump="false"
       message="&lt;b&gt;Ctrl + click&lt;/b&gt; on existing node and move it" />
    <inkscape:path-effect
       effect="powerstroke"
       id="path-effect887"
       is_visible="true"
       lpeversion="1"
       offset_points="0,1.76062"
       sort_points="true"
       interpolator_type="CubicBezierJohan"
       interpolator_beta="0.2"
       start_linecap_type="zerowidth"
       linejoin_type="extrp_arc"
       miter_limit="4"
       scale_width="1"
       end_linecap_type="zerowidth"
       not_jump="false"
       message="&lt;b&gt;Ctrl + click&lt;/b&gt; on existing node and move it" />
    <inkscape:path-effect
       effect="powerstroke"
       id="path-effect883"
       is_visible="true"
       lpeversion="1"
       offset_points="0.11049756,1.7606197"
       sort_points="true"
       interpolator_type="CubicBezierJohan"
       interpolator_beta="0.2"
       start_linecap_type="zerowidth"
       linejoin_type="extrp_arc"
       miter_limit="4"
       scale_width="1"
       end_linecap_type="zerowidth"
       not_jump="false"
       message="&lt;b&gt;Ctrl + click&lt;/b&gt; on existing node and move it" />
    <inkscape:path-effect
       effect="bspline"
       id="path-effect869"
       is_visible="true"
       lpeversion="1"
       weight="33.333333"
       steps="2"
       helper_size="0"
       apply_no_weight="true"
       apply_with_weight="true"
       only_selected="false"
       uniform="false" />
    <inkscape:perspective
       sodipodi:type="inkscape:persp3d"
       inkscape:vp_x="17.008928 : 143.72698 : 1"
       inkscape:vp_y="0 : 1000 : 0"
       inkscape:vp_z="180.51786 : 133.14365 : 1"
       inkscape:persp3d-origin="105 : 8.4263726 : 1"
       id="perspective833" />
  </defs>
  <sodipodi:namedview
     id="base"
     pagecolor="#ffffff"
     bordercolor="#666666"
     borderopacity="1.0"
     inkscape:pageopacity="0.0"
     inkscape:pageshadow="2"
     inkscape:zoom="1.4142136"
     inkscape:cx="434.16355"
     inkscape:cy="385.01963"
     inkscape:document-units="mm"
     inkscape:current-layer="layer1"
     inkscape:document-rotation="0"
     showgrid="false"
     inkscape:window-width="1499"
     inkscape:window-height="1243"
     inkscape:window-x="931"
     inkscape:window-y="144"
     inkscape:window-maximized="0"
     inkscape:showpageshadow="false"
     inkscape:pagecheckerboard="1"
     inkscape:deskcolor="#505050"
     inkscape:clip-to-page="false"
     labelstyle="default" />
  <metadata
     id="metadata5">
    <rdf:RDF>
      <cc:Work
         rdf:about="">
        <dc:format>image/svg+xml</dc:format>
        <dc:type
           rdf:resource="http://purl.org/dc/dcmitype/StillImage" />
        <cc:license
           rdf:resource="http://creativecommons.org/licenses/by-nc-nd/4.0/" />
      </cc:Work>
      <cc:License
         rdf:about="http://creativecommons.org/licenses/by-nc-nd/4.0/">
        <cc:permits
           rdf:resource="http://creativecommons.org/ns#Reproduction" />
        <cc:permits
           rdf:resource="http://creativecommons.org/ns#Distribution" />
        <cc:requires
           rdf:resource="http://creativecommons.org/ns#Notice" />
        <cc:requires
           rdf:resource="http://creativecommons.org/ns#Attribution" />
        <cc:prohibits
           rdf:resource="http://creativecommons.org/ns#CommercialUse" />
      </cc:License>
    </rdf:RDF>
  </metadata>
  <g
     inkscape:label="Layer 1"
     inkscape:groupmode="layer"
     id="layer1"
     transform="translate(-2.6458355,-2.1166678)">
    <path
       sodipodi:type="star"
       style="fill:#ffffff;fill-opacity:1;fill-rule:evenodd;stroke:#000000;stroke-width:8;stroke-miterlimit:4;stroke-dasharray:none;stroke-dashoffset:32.006"
       id="path865"
       sodipodi:sides="7"
       sodipodi:cx="101.30512"
       sodipodi:cy="144.3679"
       sodipodi:r1="77.995094"
       sodipodi:r2="70.271149"
       sodipodi:arg1="1.5707963"
       sodipodi:arg2="2.0195953"
       inkscape:flatsided="true"
       inkscape:rounded="0"
       inkscape:randomized="0"
       d="m 101.30512,222.363 -60.979017,-29.36595 -15.060576,-65.98468 42.19879,-52.915616 67.681603,-2e-6 42.1988,52.915608 -15.06058,65.98469 z"
       inkscape:transform-center-y="5.0872911"
       transform="matrix(1.2798012,0,0,1.3172852,-24.149585,-90.220746)"
       inkscape:transform-center-x="2.0247534e-05" />
    <path
       id="path881"
       style="fill:#000000;fill-opacity:1;fill-rule:nonzero;stroke:#000000;stroke-width:4.54442;stroke-linecap:square;stroke-linejoin:miter;stroke-miterlimit:4;stroke-dasharray:none;stroke-opacity:1"
       d="m 138.92338,20.680914 -8.2094,10.65064 0.3379,8.709208 -17.5583,-3.058299 -28.192468,0.560231 -28.386333,9.10131 -22.231662,23.151289 -5.644012,27.813111 v 19.540256 l 8.209415,14.96306 9.919671,19.89147 33.520814,22.88464 24.798845,6.68951 26.16724,-4.40091 32.06733,-18.92383 c 5.64045,-11.51873 10.05063,-20.36907 16.4183,-32.65434 l -17.05852,31.11599 -21.06958,11.23417 -25.40034,6.95776 -22.583076,-4.94748 -17.102653,-12.67443 -11.271277,-15.94866 6.907215,-3.00185 6.200658,-0.45107 5.626612,0.36452 8.505319,0.78703 24.712332,-4.99295 v 0 l -20.18278,-0.73497 -13.651059,-1.57208 -7.073798,-10.5952 8.644513,-19.86508 13.010896,-4.771034 9.338738,1.855232 18.47408,-2.503247 v 0 l -13.52224,-1.373246 -4.37147,-8.707341 4.22579,-12.458704 18.32762,-5.65916 23.93155,8.415132 24.29176,2.24668 L 167.0458,52.915719 150.4594,38.925733 147.47469,27.458222 Z"
       sodipodi:nodetypes="cccccccccccccccccccccccccccccccccccccccccccccc" />
    <path
       style="fill:none;stroke:#000000;stroke-width:4.54444;stroke-linecap:butt;stroke-linejoin:miter;stroke-miterlimit:4;stroke-dasharray:none;stroke-opacity:1"
       d="m 131.05188,40.040762 1.16572,6.039299"
       id="path898" />
    <path
       sodipodi:type="star"
       style="fill:#ffffff;fill-opacity:1;fill-rule:evenodd;stroke:#000000;stroke-width:2.12177;stroke-linecap:square;stroke-linejoin:miter;stroke-miterlimit:4;stroke-dasharray:none;stroke-dashoffset:32.006;stroke-opacity:1"
       id="path909"
       sodipodi:sides="4"
       sodipodi:cx="130.96207"
       sodipodi:cy="143.65735"
       sodipodi:r1="12.207666"
       sodipodi:r2="8.632123"
       sodipodi:arg1="0.73118776"
       sodipodi:arg2="1.5165859"
       inkscape:flatsided="true"
       inkscape:rounded="1.64105e-15"
       inkscape:randomized="0"
       d="m 140.04923,151.80907 -17.23888,0.93544 -0.93545,-17.23888 17.23889,-0.93545 z"
       inkscape:transform-center-x="2.1867076"
       inkscape:transform-center-y="-0.34139611"
       transform="matrix(1.6044496,-0.24100438,0.23414646,1.6514419,-88.615211,-102.24515)" />
    <ellipse
       style="fill:#000000;fill-opacity:1;fill-rule:evenodd;stroke:#000000;stroke-width:0;stroke-linecap:square;stroke-linejoin:miter;stroke-miterlimit:4;stroke-dasharray:none;stroke-dashoffset:32.006;stroke-opacity:1"
       id="path911"
       cx="127.50857"
       cy="125.44701"
       rx="2.7658391"
       ry="2.791352"
       transform="matrix(0.97928486,-0.20248744,0.19155638,0.98148161,0,0)" />
    <ellipse
       style="fill:#000000;fill-opacity:1;fill-rule:evenodd;stroke:#000000;stroke-width:0;stroke-linecap:square;stroke-linejoin:miter;stroke-miterlimit:4;stroke-dasharray:none;stroke-dashoffset:32.006;stroke-opacity:1"
       id="path911-1"
       cx="127.57965"
       cy="132.41742"
       rx="2.7658391"
       ry="2.791352"
       transform="matrix(0.97928486,-0.20248744,0.19155638,0.98148161,0,0)" />
    <ellipse
       style="fill:#000000;fill-opacity:1;fill-rule:evenodd;stroke:#000000;stroke-width:0;stroke-linecap:square;stroke-linejoin:miter;stroke-miterlimit:4;stroke-dasharray:none;stroke-dashoffset:32.006;stroke-opacity:1"
       id="path911-4"
       cx="127.83298"
       cy="139.44626"
       rx="2.7658391"
       ry="2.791352"
       transform="matrix(0.97928486,-0.20248744,0.19155638,0.98148161,0,0)" />
    <ellipse
       style="fill:#000000;fill-opacity:1;fill-rule:evenodd;stroke:#000000;stroke-width:0;stroke-linecap:square;stroke-linejoin:miter;stroke-miterlimit:4;stroke-dasharray:none;stroke-dashoffset:32.006;stroke-opacity:1"
       id="path911-8"
       cx="137.43738"
       cy="125.37025"
       rx="2.7658391"
       ry="2.791352"
       transform="matrix(0.97928486,-0.20248744,0.19155638,0.98148161,0,0)" />
    <ellipse
       style="fill:#000000;fill-opacity:1;fill-rule:evenodd;stroke:#000000;stroke-width:0;stroke-linecap:square;stroke-linejoin:miter;stroke-miterlimit:4;stroke-dasharray:none;stroke-dashoffset:32.006;stroke-opacity:1"
       id="path911-1-2"
       cx="137.50838"
       cy="132.34059"
       rx="2.7658391"
       ry="2.791352"
       transform="matrix(0.97928486,-0.20248744,0.19155638,0.98148161,0,0)" />
    <ellipse
       style="fill:#000000;fill-opacity:1;fill-rule:evenodd;stroke:#000000;stroke-width:0;stroke-linecap:square;stroke-linejoin:miter;stroke-miterlimit:4;stroke-dasharray:none;stroke-dashoffset:32.006;stroke-opacity:1"
       id="path911-4-9"
       cx="137.40094"
       cy="139.38594"
       rx="2.7658391"
       ry="2.791352"
       transform="matrix(0.97928486,-0.20248744,0.19155638,0.98148161,0,0)" />
    <path
       d="m 59.038391,62.351082 h 3.523092 l 5.27178,-16.123932 h -0.720048 l 5.220347,16.123932 H 76.01095 L 69.813395,44.504178 h -4.24314 z m 4.191708,-4.448868 h 8.537711 l -0.462887,-2.95734 h -7.611936 z m 14.863857,4.448868 H 81.41132 V 47.410086 h 2.880192 c 2.108712,0 3.34308,1.054356 3.34308,2.803044 0,1.697256 -1.02864,2.70018 -2.905908,2.70018 h -4.37172 v 2.803044 h 3.934548 c 4.063128,0 6.763308,-2.468736 6.763308,-5.991828 0,-3.291648 -2.391588,-5.220348 -6.326136,-5.220348 h -6.634728 z m 10.132104,0 h 3.960264 l -4.88604,-8.023392 h -3.677388 z m 6.48043,0 h 3.317364 V 47.410086 h 2.880196 c 2.10871,0 3.34308,1.054356 3.34308,2.803044 0,1.697256 -1.02864,2.70018 -2.90591,2.70018 h -4.371722 v 2.803044 h 3.934552 c 4.06312,0 6.7633,-2.468736 6.7633,-5.991828 0,-3.291648 -2.39158,-5.220348 -6.32613,-5.220348 h -6.63473 z m 10.1321,0 h 3.96027 l -4.88604,-8.023392 h -3.67739 z m 4.37172,0 h 3.52309 l 5.27178,-16.123932 h -0.72004 l 5.22034,16.123932 h 3.67739 l -6.19755,-17.846904 h -4.24314 z m 4.19171,-4.448868 h 8.53771 l -0.46289,-2.95734 h -7.61193 z m 18.69554,4.448868 h 3.29165 V 47.410086 h 5.76038 v -2.905908 h -14.76098 v 2.905908 h 5.70895 z m 9.25775,0 h 3.52309 l 5.27178,-16.123932 h -0.72005 l 5.22035,16.123932 h 3.67739 l -6.19756,-17.846904 h -4.24314 z m 4.19171,-4.448868 h 8.53771 l -0.46289,-2.95734 h -7.61194 z"
       id="text983"
       style="font-weight:bold;font-size:25.716px;line-height:1.25;font-family:'Noto Sans Gurmukhi UI';-inkscape-font-specification:'Noto Sans Gurmukhi UI, Bold';text-align:end;text-anchor:end;fill:#ffffff;stroke:#ffffff;stroke-width:0.642896"
       transform="scale(0.98566955,1.0145388)"
       aria-label="ARRATA" />
    <text
       xml:space="preserve"
       style="font-size:13.7414px;line-height:1.25;font-family:Bahnschrift;-inkscape-font-specification:Bahnschrift;text-align:end;text-anchor:end;stroke-width:0.343536"
       x="109.47063"
       y="61.938507"
       id="text987"
       transform="scale(0.98566955,1.0145388)"><tspan
         sodipodi:role="line"
         id="tspan985"
         x="109.47063"
         y="61.938507"
         style="stroke-width:0.343536" /></text>
    <path
       style="font-weight:600;font-size:5.93873px;line-height:1.25;font-family:'Noto Sans Gurmukhi UI';-inkscape-font-specification:'Noto Sans Gurmukhi UI, Semi-Bold';text-align:center;text-anchor:middle;fill:#ffffff;stroke:#ffffff;stroke-width:0.427249"
       d="m 58.850568,69.361038 h 0.677015 v -3.533544 h 0.718586 c 0.51667,0 0.819545,0.267243 0.819545,0.706709 0,0.427588 -0.261304,0.677015 -0.736403,0.677015 H 59.30785 v 0.570118 h 0.938319 c 0.908626,0 1.520315,-0.558241 1.520315,-1.35403 0,-0.74828 -0.546363,-1.187746 -1.437173,-1.187746 h -1.478743 z m 2.357675,0 h 0.807668 l -1.128359,-1.882577 h -0.754219 z m 3.159399,0.05345 c 1.21744,0 2.036985,-0.861116 2.036985,-2.155759 0,-1.241195 -0.79579,-2.072617 -1.977597,-2.072617 -1.205563,0 -2.007291,0.855177 -2.007291,2.143882 0,1.253072 0.777974,2.084494 1.947903,2.084494 z m 0.05939,-0.593873 c -0.789851,0 -1.306521,-0.617628 -1.306521,-1.561886 0,-0.884871 0.492915,-1.478744 1.247133,-1.478744 0.801729,0 1.336214,0.617628 1.336214,1.550009 0,0.896748 -0.51073,1.490621 -1.276826,1.490621 z m 2.76151,0.540424 h 2.476451 V 68.767165 H 67.865555 V 65.23956 H 67.18854 Z m 3.111896,0 h 2.713999 v -0.587934 h -2.036984 v -1.229317 h 1.876639 v -0.593873 h -1.876639 v -1.116481 h 2.036984 V 65.23956 h -2.713999 z m 3.539487,0 h 0.677015 v -3.527605 h 0.629505 c 0.534486,0 0.896748,0.332569 0.896748,0.837361 0,0.481037 -0.296936,0.742341 -0.825483,0.742341 h -0.950197 v 0.587934 h 0.825484 c 0.985829,0 1.645028,-0.564179 1.645028,-1.425295 0,-0.813606 -0.593873,-1.336214 -1.526254,-1.336214 h -1.371846 z m 3.575111,0 h 2.47645 V 68.767165 H 78.092049 V 65.23956 h -0.677015 z m 2.624919,0 H 80.7526 l 1.259011,-3.7414 h -0.130652 l 1.229317,3.7414 h 0.74828 L 82.427322,65.23956 h -0.872993 z m 0.902687,-1.092726 h 2.001352 L 82.872727,67.6685 h -1.858823 z m 4.430296,1.092726 h 0.677015 v -1.668783 l 1.44905,-2.452695 h -0.74828 l -1.057093,1.936026 h 0.08314 L 84.678105,65.23956 h -0.79579 l 1.490621,2.446756 z m 2.636794,0 h 0.682954 V 65.23956 H 88.00973 Z m 1.686602,0 h 0.641383 v -3.337566 l -0.0772,0.01782 2.209208,3.31975 h 0.754218 V 65.23956 h -0.641383 l -0.0059,3.36726 0.09502,-0.01782 -2.203268,-3.349443 h -0.772035 z m 6.413831,0.05939 c 0.599812,0 1.128359,-0.178162 1.561886,-0.528547 V 67.092443 H 95.943878 V 67.6685 h 1.068972 v 1.259011 l 0.124713,-0.368201 c -0.255365,0.172223 -0.581995,0.273181 -0.938319,0.273181 -0.902687,0 -1.484683,-0.617628 -1.484683,-1.579702 0,-0.938319 0.540425,-1.472805 1.484683,-1.472805 0.368201,0 0.789851,0.0772 1.12242,0.201917 l 0.190039,-0.528547 c -0.356324,-0.172223 -0.801728,-0.267243 -1.259011,-0.267243 -1.35403,0 -2.238901,0.861116 -2.238901,2.155759 0,1.247133 0.831422,2.078556 2.096372,2.078556 z m 4.750977,0 c 0.97395,0 1.5797,-0.486976 1.5797,-1.241195 0,-1.478744 -2.21515,-0.944258 -2.21515,-1.852884 0,-0.356323 0.30882,-0.552302 0.86112,-0.552302 0.34444,0 0.71858,0.07126 1.01552,0.184101 l 0.19598,-0.534486 c -0.35039,-0.154407 -0.77204,-0.237549 -1.16993,-0.237549 -0.96207,0 -1.603458,0.486976 -1.603458,1.247133 0,1.407479 2.209208,0.926442 2.209208,1.835068 0,0.338508 -0.29694,0.552302 -0.8433,0.552302 -0.37414,0 -0.83142,-0.09502 -1.235255,-0.261304 l -0.195979,0.540424 c 0.445405,0.201917 0.938324,0.320692 1.401544,0.320692 z m 3.27224,-0.05939 h 0.67701 v -1.668783 l 1.44905,-2.452695 h -0.74828 l -1.05709,1.936026 h 0.0831 l -1.09866,-1.936026 h -0.79579 l 1.49062,2.446756 z m 3.72952,0.05939 c 0.97395,0 1.5797,-0.486976 1.5797,-1.241195 0,-1.478744 -2.21515,-0.944258 -2.21515,-1.852884 0,-0.356323 0.30882,-0.552302 0.86112,-0.552302 0.34444,0 0.71858,0.07126 1.01552,0.184101 l 0.19598,-0.534486 c -0.35039,-0.154407 -0.77204,-0.237549 -1.16993,-0.237549 -0.96208,0 -1.60346,0.486976 -1.60346,1.247133 0,1.407479 2.20921,0.926442 2.20921,1.835068 0,0.338508 -0.29694,0.552302 -0.8433,0.552302 -0.37414,0 -0.83142,-0.09502 -1.23526,-0.261304 l -0.19597,0.540424 c 0.4454,0.201917 0.93831,0.320692 1.40154,0.320692 z m 3.16533,-0.05939 h 0.66514 v -3.527605 h 1.34809 V 65.23956 h -3.35538 v 0.593873 h 1.34215 z m 2.56554,0 h 2.714 v -0.587934 h -2.03699 v -1.229317 h 1.87664 v -0.593873 h -1.87664 v -1.116481 h 2.03699 V 65.23956 h -2.714 z m 3.53949,0 h 0.65326 V 66.17194 l -0.11284,0.05939 1.28277,2.494266 h 0.5226 l 1.25308,-2.494266 -0.0713,-0.04751 v 3.17722 h 0.65326 V 65.23956 h -0.6592 l -1.5797,3.094078 h 0.33851 l -1.6094,-3.094078 h -0.67107 z"
       id="text983-4"
       transform="scale(0.98566955,1.0145388)"
       aria-label="ROLEPLAYING SYSTEM" />
    <path
       sodipodi:type="star"
       style="fill:#ffffff;fill-opacity:1;fill-rule:evenodd;stroke:#000000;stroke-width:2.92869;stroke-linecap:square;stroke-linejoin:miter;stroke-miterlimit:4;stroke-dasharray:none;stroke-dashoffset:32.006;stroke-opacity:1"
       id="path909-2"
       sodipodi:sides="4"
       sodipodi:cx="130.96207"
       sodipodi:cy="143.65735"
       sodipodi:r1="12.207666"
       sodipodi:r2="8.632123"
       sodipodi:arg1="0.73118776"
       sodipodi:arg2="1.5165859"
       inkscape:flatsided="true"
       inkscape:rounded="1.64105e-15"
       inkscape:randomized="0"
       inkscape:transform-center-x="0.73291979"
       inkscape:transform-center-y="-1.0535368"
       transform="matrix(0.73251021,0.57788365,-0.5614397,0.75396466,111.41965,-66.123265)"
       d="m 140.04923,151.80907 -17.23888,0.93544 -0.93545,-17.23888 17.23889,-0.93545 z" />
    <ellipse
       style="fill:#000000;fill-opacity:1;fill-rule:evenodd;stroke:#000000;stroke-width:0;stroke-linecap:square;stroke-linejoin:miter;stroke-miterlimit:4;stroke-dasharray:none;stroke-dashoffset:32.006;stroke-opacity:1"
       id="path911-88"
       cx="170.6852"
       cy="23.176897"
       rx="1.9867641"
       ry="1.9728653"
       transform="matrix(0.81726627,0.57626022,-0.55405626,0.83247922,0,0)" />
    <path
       sodipodi:type="star"
       style="fill:#ffffff;fill-opacity:1;fill-rule:evenodd;stroke:#000000;stroke-width:2.27612;stroke-linecap:square;stroke-linejoin:miter;stroke-miterlimit:4;stroke-dasharray:none;stroke-dashoffset:32.006;stroke-opacity:1"
       id="path909-4"
       sodipodi:sides="4"
       sodipodi:cx="130.96207"
       sodipodi:cy="143.65735"
       sodipodi:r1="12.207666"
       sodipodi:r2="8.632123"
       sodipodi:arg1="0.73118776"
       sodipodi:arg2="1.5165859"
       inkscape:flatsided="true"
       inkscape:rounded="1.64105e-15"
       inkscape:randomized="0"
       inkscape:transform-center-x="1.5833677"
       inkscape:transform-center-y="-0.65921663"
       transform="matrix(1.2472019,0.11451009,-0.11125165,1.2837315,-1.6312163,-60.560663)"
       d="m 140.04923,151.80907 -17.23888,0.93544 -0.93545,-17.23888 17.23889,-0.93545 z" />
    <ellipse
       style="fill:#000000;fill-opacity:1;fill-rule:evenodd;stroke:#000000;stroke-width:0;stroke-linecap:square;stroke-linejoin:miter;stroke-miterlimit:4;stroke-dasharray:none;stroke-dashoffset:32.006;stroke-opacity:1"
       id="path911-4-22"
       cx="146.08977"
       cy="138.69995"
       rx="2.1335301"
       ry="2.1578832"
       transform="matrix(0.99932763,0.03666444,-0.03461007,0.99940089,0,0)" />
    <ellipse
       style="fill:#000000;fill-opacity:1;fill-rule:evenodd;stroke:#000000;stroke-width:0;stroke-linecap:square;stroke-linejoin:miter;stroke-miterlimit:4;stroke-dasharray:none;stroke-dashoffset:32.006;stroke-opacity:1"
       id="path911-8-5"
       cx="155.67146"
       cy="127.91087"
       rx="2.1335301"
       ry="2.1578832"
       transform="matrix(0.99932763,0.03666444,-0.03461007,0.99940089,0,0)" />
    <ellipse
       style="fill:#000000;fill-opacity:1;fill-rule:evenodd;stroke:#000000;stroke-width:0;stroke-linecap:square;stroke-linejoin:miter;stroke-miterlimit:4;stroke-dasharray:none;stroke-dashoffset:32.006;stroke-opacity:1"
       id="path911-1-2-3"
       cx="151.76711"
       cy="134.38182"
       rx="2.1381557"
       ry="2.2124307"
       transform="matrix(0.99957698,0.02908356,-0.04160406,0.99913418,0,0)" />
  </g>
</svg>
