<svg width="205.7mm" height="206.4mm" version="1.1" viewBox="0 0 205.7 206.4" xmlns="http://www.w3.org/2000/svg">
 <g transform="translate(-2.646 -2.117)">
  <g stroke="#000">
   <path transform="matrix(1.28 0 0 1.317 -24.15 -90.22)" d="m101.3 222.4-60.98-29.37-15.06-65.98 42.2-52.92 67.68-2e-6 42.2 52.92-15.06 65.98z" fill="#fff" fill-rule="evenodd" stroke-dashoffset="32.01" stroke-width="8"/>
   <g>
    <path d="m138.9 20.68-8.209 10.65 0.3379 8.709-17.56-3.058-28.19 0.5602-28.39 9.101-22.23 23.15-5.644 27.81v19.54l8.209 14.96 9.92 19.89 33.52 22.88 24.8 6.69 26.17-4.401 32.07-18.92c5.64-11.52 10.05-20.37 16.42-32.65l-17.06 31.12-21.07 11.23-25.4 6.958-22.58-4.947-17.1-12.67-11.27-15.95 6.907-3.002 6.201-0.4511 5.627 0.3645 8.505 0.787 24.71-4.993v0l-20.18-0.735-13.65-1.572-7.074-10.6 8.645-19.87 13.01-4.771 9.339 1.855 18.47-2.503v0l-13.52-1.373-4.371-8.707 4.226-12.46 18.33-5.659 23.93 8.415 24.29 2.247-12.01-25.4-16.59-13.99-2.985-11.47z" stroke-linecap="square" stroke-width="4.544"/>
    <path d="m131.1 40.04 1.166 6.039" fill="none" stroke-width="4.544"/>
    <path transform="matrix(1.604 -.241 .2341 1.651 -88.62 -102.2)" d="m140 151.8-17.24 0.9354-0.9354-17.24 17.24-0.9354z" fill="#fff" fill-rule="evenodd" stroke-dashoffset="32.01" stroke-linecap="square" stroke-width="2.122"/>
   </g>
  </g>
  <g fill-rule="evenodd" stroke-width="0">
   <ellipse transform="matrix(.9793 -.2025 .1916 .9815 0 0)" cx="127.5" cy="125.4" rx="2.766" ry="2.791"/>
   <ellipse transform="matrix(.9793 -.2025 .1916 .9815 0 0)" cx="127.6" cy="132.4" rx="2.766" ry="2.791"/>
   <ellipse transform="matrix(.9793 -.2025 .1916 .9815 0 0)" cx="127.8" cy="139.4" rx="2.766" ry="2.791"/>
   <ellipse transform="matrix(.9793 -.2025 .1916 .9815 0 0)" cx="137.4" cy="125.4" rx="2.766" ry="2.791"/>
   <ellipse transform="matrix(.9793 -.2025 .1916 .9815 0 0)" cx="137.5" cy="132.3" rx="2.766" ry="2.791"/>
   <ellipse transform="matrix(.9793 -.2025 .1916 .9815 0 0)" cx="137.4" cy="139.4" rx="2.766" ry="2.791"/>
  </g>
  <path transform="scale(.9857 1.015)" d="m59.04 62.35h3.523l5.272-16.12h-0.72l5.22 16.12h3.677l-6.198-17.85h-4.243zm4.192-4.449h8.538l-0.4629-2.957h-7.612zm14.86 4.449h3.317v-14.94h2.88c2.109 0 3.343 1.054 3.343 2.803 0 1.697-1.029 2.7-2.906 2.7h-4.372v2.803h3.935c4.063 0 6.763-2.469 6.763-5.992 0-3.292-2.392-5.22-6.326-5.22h-6.635zm10.13 0h3.96l-4.886-8.023h-3.677zm6.48 0h3.317v-14.94h2.88c2.109 0 3.343 1.054 3.343 2.803 0 1.697-1.029 2.7-2.906 2.7h-4.372v2.803h3.935c4.063 0 6.763-2.469 6.763-5.992 0-3.292-2.392-5.22-6.326-5.22h-6.635zm10.13 0h3.96l-4.886-8.023h-3.677zm4.372 0h3.523l5.272-16.12h-0.72l5.22 16.12h3.677l-6.198-17.85h-4.243zm4.192-4.449h8.538l-0.4629-2.957h-7.612zm18.7 4.449h3.292v-14.94h5.76v-2.906h-14.76v2.906h5.709zm9.258 0h3.523l5.272-16.12h-0.72l5.22 16.12h3.677l-6.198-17.85h-4.243zm4.192-4.449h8.538l-0.4629-2.957h-7.612z" fill="#fff" stroke="#fff" stroke-width=".6429" aria-label="ARRATA"/>
  <text transform="scale(.9857 1.015)" x="109.47063" y="61.938507" font-family="Bahnschrift" font-size="13.74px" stroke-width=".3435" text-align="end" text-anchor="end" style="line-height:1.25" xml:space="preserve"><tspan x="109.47063" y="61.938507" stroke-width=".3435"/></text>
  <path transform="scale(.9857 1.015)" d="m58.85 69.36h0.677v-3.534h0.7186c0.5167 0 0.8195 0.2672 0.8195 0.7067 0 0.4276-0.2613 0.677-0.7364 0.677h-1.021v0.5701h0.9383c0.9086 0 1.52-0.5582 1.52-1.354 0-0.7483-0.5464-1.188-1.437-1.188h-1.479zm2.358 0h0.8077l-1.128-1.883h-0.7542zm3.159 0.05345c1.217 0 2.037-0.8611 2.037-2.156 0-1.241-0.7958-2.073-1.978-2.073-1.206 0-2.007 0.8552-2.007 2.144 0 1.253 0.778 2.084 1.948 2.084zm0.05939-0.5939c-0.7899 0-1.307-0.6176-1.307-1.562 0-0.8849 0.4929-1.479 1.247-1.479 0.8017 0 1.336 0.6176 1.336 1.55 0 0.8967-0.5107 1.491-1.277 1.491zm2.762 0.5404h2.476v-0.5939h-1.799v-3.528h-0.677zm3.112 0h2.714v-0.5879h-2.037v-1.229h1.877v-0.5939h-1.877v-1.116h2.037v-0.5939h-2.714zm3.539 0h0.677v-3.528h0.6295c0.5345 0 0.8967 0.3326 0.8967 0.8374 0 0.481-0.2969 0.7423-0.8255 0.7423h-0.9502v0.5879h0.8255c0.9858 0 1.645-0.5642 1.645-1.425 0-0.8136-0.5939-1.336-1.526-1.336h-1.372zm3.575 0h2.476v-0.5939h-1.799v-3.528h-0.677zm2.625 0h0.7126l1.259-3.741h-0.1307l1.229 3.741h0.7483l-1.431-4.121h-0.873zm0.9027-1.093h2.001l-0.07127-0.5998h-1.859zm4.43 1.093h0.677v-1.669l1.449-2.453h-0.7483l-1.057 1.936h0.08314l-1.099-1.936h-0.7958l1.491 2.447zm2.637 0h0.683v-4.121h-0.683zm1.687 0h0.6414v-3.338l-0.0772 0.01782 2.209 3.32h0.7542v-4.121h-0.6414l-0.0059 3.367 0.09502-0.01782-2.203-3.349h-0.772zm6.414 0.05939c0.5998 0 1.128-0.1782 1.562-0.5285v-1.799h-1.728v0.5761h1.069v1.259l0.1247-0.3682c-0.2554 0.1722-0.582 0.2732-0.9383 0.2732-0.9027 0-1.485-0.6176-1.485-1.58 0-0.9383 0.5404-1.473 1.485-1.473 0.3682 0 0.7899 0.0772 1.122 0.2019l0.19-0.5285c-0.3563-0.1722-0.8017-0.2672-1.259-0.2672-1.354 0-2.239 0.8611-2.239 2.156 0 1.247 0.8314 2.079 2.096 2.079zm4.751 0c0.974 0 1.58-0.487 1.58-1.241 0-1.479-2.215-0.9443-2.215-1.853 0-0.3563 0.3088-0.5523 0.8611-0.5523 0.3444 0 0.7186 0.07126 1.016 0.1841l0.196-0.5345c-0.3504-0.1544-0.772-0.2375-1.17-0.2375-0.9621 0-1.603 0.487-1.603 1.247 0 1.407 2.209 0.9264 2.209 1.835 0 0.3385-0.2969 0.5523-0.8433 0.5523-0.3741 0-0.8314-0.09502-1.235-0.2613l-0.196 0.5404c0.4454 0.2019 0.9383 0.3207 1.402 0.3207zm3.272-0.05939h0.677v-1.669l1.449-2.453h-0.7483l-1.057 1.936h0.0831l-1.099-1.936h-0.7958l1.491 2.447zm3.73 0.05939c0.974 0 1.58-0.487 1.58-1.241 0-1.479-2.215-0.9443-2.215-1.853 0-0.3563 0.3088-0.5523 0.8611-0.5523 0.3444 0 0.7186 0.07126 1.016 0.1841l0.196-0.5345c-0.3504-0.1544-0.772-0.2375-1.17-0.2375-0.9621 0-1.603 0.487-1.603 1.247 0 1.407 2.209 0.9264 2.209 1.835 0 0.3385-0.2969 0.5523-0.8433 0.5523-0.3741 0-0.8314-0.09502-1.235-0.2613l-0.196 0.5404c0.4454 0.2019 0.9383 0.3207 1.402 0.3207zm3.165-0.05939h0.6651v-3.528h1.348v-0.5939h-3.355v0.5939h1.342zm2.566 0h2.714v-0.5879h-2.037v-1.229h1.877v-0.5939h-1.877v-1.116h2.037v-0.5939h-2.714zm3.539 0h0.6533v-3.189l-0.1128 0.05939 1.283 2.494h0.5226l1.253-2.494-0.0713-0.04751v3.177h0.6533v-4.121h-0.6592l-1.58 3.094h0.3385l-1.609-3.094h-0.6711z" fill="#fff" stroke="#fff" stroke-width=".4272" aria-label="ROLEPLAYING SYSTEM"/>
  <g fill-rule="evenodd">
   <path transform="matrix(.7325 .5779 -.5614 .754 111.4 -66.12)" d="m140 151.8-17.24 0.9354-0.9354-17.24 17.24-0.9354z" fill="#fff" stroke="#000" stroke-dashoffset="32.01" stroke-linecap="square" stroke-width="2.929"/>
   <ellipse transform="matrix(.8173 .5763 -.5541 .8325 0 0)" cx="170.7" cy="23.18" rx="1.987" ry="1.973" stroke-width="0"/>
   <path transform="matrix(1.247 .1145 -.1113 1.284 -1.631 -60.56)" d="m140 151.8-17.24 0.9354-0.9354-17.24 17.24-0.9354z" fill="#fff" stroke="#000" stroke-dashoffset="32.01" stroke-linecap="square" stroke-width="2.276"/>
  </g>
  <g fill-rule="evenodd" stroke-width="0">
   <ellipse transform="matrix(.9993 .03666 -.03461 .9994 0 0)" cx="146.1" cy="138.7" rx="2.134" ry="2.158"/>
   <ellipse transform="matrix(.9993 .03666 -.03461 .9994 0 0)" cx="155.7" cy="127.9" rx="2.134" ry="2.158"/>
   <ellipse transform="matrix(.9996 .02908 -.0416 .9991 0 0)" cx="151.8" cy="134.4" rx="2.138" ry="2.212"/>
  </g>
 </g>
</svg>
