<svg width="205mm" height="205mm" version="1.1" viewBox="0 0 205 205" xmlns="http://www.w3.org/2000/svg">
 <g transform="translate(-2.646 -2.117)">
  <g stroke="#000">
   <path transform="matrix(1.275 0 0 1.308 -24.06 -89.57)" d="m101.3 222.4-60.98-29.37-15.06-65.98 42.2-52.92 67.68-2e-6 42.2 52.92-15.06 65.98z" fill="#fff" fill-rule="evenodd" stroke-dashoffset="32.01" stroke-width="8"/>
   <g>
    <path d="m138.5 20.55-8.181 10.58 0.3367 8.648-17.5-3.037-28.1 0.5563-28.29 9.038-22.15 22.99-5.625 27.62v19.4l8.181 14.86 9.885 19.75 33.41 22.72 24.71 6.643 26.08-4.37 31.96-18.79c5.621-11.44 10.02-20.23 16.36-32.43l-17 30.9-21 11.16-25.31 6.909-22.51-4.913-17.04-12.59-11.23-15.84 6.883-2.981 6.179-0.4479 5.607 0.362 8.476 0.7815 24.63-4.958v0l-20.11-0.7298-13.6-1.561-7.049-10.52 8.615-19.73 12.97-4.738 9.306 1.842 18.41-2.486v0l-13.48-1.364-4.356-8.646 4.211-12.37 18.26-5.62 23.85 8.356 24.21 2.231-11.96-25.22-16.53-13.89-2.974-11.39z" stroke-linecap="square" stroke-width="4.521"/>
    <path d="m130.6 39.77 1.162 5.997" fill="none" stroke-width="4.521"/>
    <path transform="matrix(1.599 -.2393 .2333 1.64 -88.3 -101.5)" d="m140 151.8-17.24 0.9354-0.9354-17.24 17.24-0.9354z" fill="#fff" fill-rule="evenodd" stroke-dashoffset="32.01" stroke-linecap="square" stroke-width="2.122"/>
   </g>
  </g>
  <g fill-rule="evenodd" stroke-width="0">
   <ellipse transform="matrix(.9794 -.2018 .1922 .9814 0 0)" cx="127.1" cy="124.6" rx="2.756" ry="2.772"/>
   <ellipse transform="matrix(.9794 -.2018 .1922 .9814 0 0)" cx="127.1" cy="131.5" rx="2.756" ry="2.772"/>
   <ellipse transform="matrix(.9794 -.2018 .1922 .9814 0 0)" cx="127.4" cy="138.5" rx="2.756" ry="2.772"/>
   <ellipse transform="matrix(.9794 -.2018 .1922 .9814 0 0)" cx="136.9" cy="124.5" rx="2.756" ry="2.772"/>
   <ellipse transform="matrix(.9794 -.2018 .1922 .9814 0 0)" cx="137" cy="131.4" rx="2.756" ry="2.772"/>
   <ellipse transform="matrix(.9794 -.2018 .1922 .9814 0 0)" cx="136.9" cy="138.4" rx="2.756" ry="2.772"/>
  </g>
  <path d="m58 62.83h3.461l5.178-16.24h-0.7073l5.128 16.24h3.612l-6.088-17.98h-4.168zm4.117-4.482h8.386l-0.4547-2.979h-7.477zm14.6 4.482h3.259v-15.05h2.829c2.071 0 3.284 1.062 3.284 2.824 0 1.71-1.01 2.72-2.854 2.72h-4.294v2.824h3.865c3.991 0 6.643-2.487 6.643-6.036 0-3.316-2.349-5.259-6.214-5.259h-6.517zm9.952 0h3.89l-4.799-8.083h-3.612zm6.365 0h3.259v-15.05h2.829c2.071 0 3.284 1.062 3.284 2.824 0 1.71-1.01 2.72-2.854 2.72h-4.294v2.824h3.865c3.991 0 6.643-2.487 6.643-6.036 0-3.316-2.349-5.259-6.214-5.259h-6.517zm9.952 0h3.89l-4.799-8.083h-3.612zm4.294 0h3.461l5.178-16.24h-0.7073l5.128 16.24h3.612l-6.088-17.98h-4.168zm4.117-4.482h8.386l-0.4547-2.979h-7.477zm18.36 4.482h3.233v-15.05h5.658v-2.928h-14.5v2.928h5.608zm9.094 0h3.461l5.178-16.24h-0.7073l5.128 16.24h3.612l-6.088-17.98h-4.168zm4.117-4.482h8.386l-0.4547-2.979h-7.477z" fill="#fff" stroke="#fff" stroke-width=".6395" aria-label="ARRATA"/>
  <text transform="scale(.9874 1.013)" x="108.90749" y="61.628853" font-family="Bahnschrift" font-size="13.67px" stroke-width=".3417" text-align="end" text-anchor="end" style="line-height:1.25" xml:space="preserve"><tspan x="108.90749" y="61.628853" stroke-width=".3417"/></text>
  <path d="m57.82 69.89h0.665v-3.56h0.7058c0.5075 0 0.805 0.2692 0.805 0.712 0 0.4308-0.2567 0.682-0.7233 0.682h-1.003v0.5744h0.9217c0.8925 0 1.493-0.5624 1.493-1.364 0-0.7538-0.5367-1.197-1.412-1.197h-1.453zm2.316 0h0.7933l-1.108-1.897h-0.7408zm3.103 0.05385c1.196 0 2.001-0.8675 2.001-2.172 0-1.25-0.7817-2.088-1.943-2.088-1.184 0-1.972 0.8615-1.972 2.16 0 1.262 0.7642 2.1 1.913 2.1zm0.05834-0.5983c-0.7758 0-1.283-0.6222-1.283-1.573 0-0.8914 0.4842-1.49 1.225-1.49 0.7875 0 1.313 0.6222 1.313 1.562 0 0.9034-0.5017 1.502-1.254 1.502zm2.713 0.5444h2.433v-0.5983h-1.768v-3.554h-0.665zm3.057 0h2.666v-0.5923h-2.001v-1.238h1.843v-0.5983h-1.843v-1.125h2.001v-0.5983h-2.666zm3.477 0h0.665v-3.554h0.6183c0.525 0 0.8808 0.335 0.8808 0.8436 0 0.4846-0.2917 0.7479-0.8108 0.7479h-0.9333v0.5923h0.8108c0.9683 0 1.616-0.5684 1.616-1.436 0-0.8197-0.5833-1.346-1.499-1.346h-1.348zm3.512 0h2.433v-0.5983h-1.768v-3.554h-0.665zm2.578 0h0.7l1.237-3.769h-0.1283l1.208 3.769h0.735l-1.406-4.152h-0.8575zm0.8867-1.101h1.966l-0.07-0.6043h-1.826zm4.352 1.101h0.665v-1.681l1.423-2.471h-0.735l-1.038 1.95h0.08166l-1.079-1.95h-0.7817l1.464 2.465zm2.59 0h0.6708v-4.152h-0.6708zm1.657 0h0.63v-3.362l-0.07582 0.01796 2.17 3.344h0.7408v-4.152h-0.63l-0.0058 3.392 0.09333-0.01796-2.164-3.374h-0.7583zm6.3 0.05983c0.5892 0 1.108-0.1795 1.534-0.5325v-1.813h-1.698v0.5803h1.05v1.268l0.1225-0.3709c-0.2508 0.1735-0.5717 0.2752-0.9217 0.2752-0.8867 0-1.458-0.6222-1.458-1.591 0-0.9453 0.5308-1.484 1.458-1.484 0.3617 0 0.7758 0.07777 1.103 0.2034l0.1867-0.5325c-0.35-0.1735-0.7875-0.2692-1.237-0.2692-1.33 0-2.199 0.8675-2.199 2.172 0 1.256 0.8167 2.094 2.059 2.094zm4.667 0c0.9567 0 1.552-0.4906 1.552-1.25 0-1.49-2.176-0.9513-2.176-1.867 0-0.359 0.3033-0.5564 0.8458-0.5564 0.3383 0 0.7058 0.07178 0.9975 0.1855l0.1925-0.5385c-0.3442-0.1556-0.7583-0.2393-1.149-0.2393-0.945 0-1.575 0.4906-1.575 1.256 0 1.418 2.17 0.9333 2.17 1.849 0 0.341-0.2917 0.5564-0.8283 0.5564-0.3675 0-0.8167-0.09573-1.213-0.2632l-0.1925 0.5444c0.4375 0.2034 0.9217 0.3231 1.377 0.3231zm3.214-0.05983h0.665v-1.681l1.423-2.471h-0.735l-1.038 1.95h0.0816l-1.079-1.95h-0.7817l1.464 2.465zm3.663 0.05983c0.9567 0 1.552-0.4906 1.552-1.25 0-1.49-2.176-0.9513-2.176-1.867 0-0.359 0.3033-0.5564 0.8458-0.5564 0.3383 0 0.7058 0.07178 0.9975 0.1855l0.1925-0.5385c-0.3442-0.1556-0.7584-0.2393-1.149-0.2393-0.945 0-1.575 0.4906-1.575 1.256 0 1.418 2.17 0.9333 2.17 1.849 0 0.341-0.2917 0.5564-0.8283 0.5564-0.3675 0-0.8167-0.09573-1.213-0.2632l-0.1925 0.5444c0.4375 0.2034 0.9217 0.3231 1.377 0.3231zm3.109-0.05983h0.6534v-3.554h1.324v-0.5983h-3.296v0.5983h1.318zm2.52 0h2.666v-0.5923h-2.001v-1.238h1.843v-0.5983h-1.843v-1.125h2.001v-0.5983h-2.666zm3.477 0h0.6417v-3.213l-0.1108 0.05982 1.26 2.513h0.5133l1.231-2.513-0.07-0.04787v3.201h0.6417v-4.152h-0.6475l-1.552 3.117h0.3325l-1.581-3.117h-0.6592z" fill="#fff" stroke="#fff" stroke-width=".425" aria-label="ROLEPLAYING SYSTEM"/>
  <g fill-rule="evenodd">
   <path transform="matrix(.73 .5738 -.5595 .7487 111 -65.65)" d="m140 151.8-17.24 0.9354-0.9354-17.24 17.24-0.9354z" fill="#fff" stroke="#000" stroke-dashoffset="32.01" stroke-linecap="square" stroke-width="2.929"/>
   <ellipse transform="matrix(.8182 .5749 -.5554 .8316 0 0)" cx="169.9" cy="23.05" rx="1.978" ry="1.961" stroke-width="0"/>
   <path transform="matrix(1.243 .1137 -.1109 1.275 -1.616 -60.12)" d="m140 151.8-17.24 0.9354-0.9354-17.24 17.24-0.9354z" fill="#fff" stroke="#000" stroke-dashoffset="32.01" stroke-linecap="square" stroke-width="2.276"/>
  </g>
  <g fill-rule="evenodd" stroke-width="0">
   <ellipse transform="matrix(.9993 .03653 -.03473 .9994 0 0)" cx="145.6" cy="137.7" rx="2.126" ry="2.143"/>
   <ellipse transform="matrix(.9993 .03653 -.03473 .9994 0 0)" cx="155.1" cy="127" rx="2.126" ry="2.143"/>
   <ellipse transform="matrix(.9996 .02898 -.04175 .9991 0 0)" cx="151.3" cy="133.5" rx="2.131" ry="2.197"/>
  </g>
 </g>
</svg>
